<?xml version="1.0" encoding="iso-8859-1"?>
<!-- Uploaded to: SVG Repo, www.svgrepo.com, Generator: SVG Repo Mixer Tools -->
<svg height="800px" width="800px" version="1.1" id="Layer_1" xmlns="http://www.w3.org/2000/svg" xmlns:xlink="http://www.w3.org/1999/xlink" 
	 viewBox="0 0 512 512" xml:space="preserve">
<g transform="translate(1 1)">
	<path style="fill:#FFDD09;" d="M502.467,255c0,136.533-110.933,247.467-247.467,247.467S7.533,391.533,7.533,255
		S118.467,7.533,255,7.533S502.467,118.467,502.467,255"/>
	<path style="fill:#FD9808;" d="M255,7.533c-4.267,0-8.533,0-12.8,0C372.76,14.36,476.867,122.733,476.867,255
		S372.76,495.64,242.2,502.467c4.267,0,8.533,0,12.8,0c136.533,0,247.467-110.933,247.467-247.467S391.533,7.533,255,7.533"/>
	<path style="fill:#FFFFFF;" d="M255,7.533c4.267,0,8.533,0,12.8,0C137.24,14.36,33.133,122.733,33.133,255
		S137.24,495.64,267.8,502.467c-4.267,0-8.533,0-12.8,0C118.467,502.467,7.533,391.533,7.533,255S118.467,7.533,255,7.533"/>
	<path d="M255,511C114.2,511-1,395.8-1,255S114.2-1,255-1s256,115.2,256,256S395.8,511,255,511z M255,16.067
		C123.587,16.067,16.067,123.587,16.067,255S123.587,493.933,255,493.933S493.933,386.413,493.933,255S386.413,16.067,255,16.067z"
		/>
	<path d="M331.8,323.267c-5.12,0-8.533-3.413-8.533-8.533V195.267c0-5.12,3.413-8.533,8.533-8.533s8.533,3.413,8.533,8.533v119.467
		C340.333,319.853,336.92,323.267,331.8,323.267z"/>
	<path d="M383,323.267c-5.12,0-8.533-3.413-8.533-8.533V195.267c0-5.12,3.413-8.533,8.533-8.533c5.12,0,8.533,3.413,8.533,8.533
		v119.467C391.533,319.853,388.12,323.267,383,323.267z"/>
	<path d="M220.867,323.267c-1.707,0-2.56,0-4.267-0.853c-4.267-2.56-5.12-7.68-3.413-11.947L281.453,191
		c2.56-4.267,7.68-5.12,11.947-3.413c4.267,2.56,5.12,7.68,3.413,11.947L228.547,319C226.84,321.56,223.427,323.267,220.867,323.267
		z"/>
	<polygon style="fill:#54C9FD;" points="203.8,255 101.4,314.733 101.4,195.267 	"/>
	<path d="M101.4,323.267c-1.707,0-2.56,0-4.267-0.853c-2.56-1.707-4.267-4.267-4.267-7.68V195.267c0-3.413,1.707-5.973,4.267-7.68
		c2.56-1.707,5.973-1.707,8.533,0l102.4,59.733c2.56,1.707,4.267,4.267,4.267,7.68c0,3.413-1.707,5.973-4.267,7.68l-102.4,59.733
		C103.96,323.267,103.107,323.267,101.4,323.267z M109.933,209.773v89.6l76.8-45.227L109.933,209.773z"/>
</g>
</svg>