<svg xmlns="http://www.w3.org/2000/svg" xmlns:xlink="http://www.w3.org/1999/xlink" width="64" height="64" id="calendar"><defs><path id="a" d="M.06 64V.04H64V64z"></path></defs><g fill="none" fill-rule="evenodd"><mask id="b" fill="#fff"><use xlink:href="#a"></use></mask><path fill="#76ABC4" d="M64 32c0 17.673-14.327 32-32 32C14.327 64 0 49.673 0 32 0 14.327 14.327 0 32 0c17.673 0 32 14.327 32 32" mask="url(#b)"></path><path fill="#638DA0" d="M48 54H16a4 4 0 0 1-4-4V25v23a4 4 0 0 0 4 4h32a4 4 0 0 0 4-4v2a4 4 0 0 1-4 4"></path><path fill="#FFFFFE" d="M12 23v25a4 4 0 0 0 4 4h32a4 4 0 0 0 4-4V23H12"></path><path fill="#CFCDC8" d="M12 25h40v-2H12z"></path><path fill="#B85756" d="M48 12H16a4 4 0 0 0-4 4v7h40v-7a4 4 0 0 0-4-4"></path><path fill="#4C5665" d="M32 48a2 2 0 0 1-2-2c0-5.515 1.757-9.455 3.491-12H27a2 2 0 0 1 0-4h11a2 2 0 0 1 1.156 3.632C38.957 33.778 34 37.493 34 46a2 2 0 0 1-2 2"></path><path fill="#638DA0" d="M22 12h-4a2 2 0 0 1 4 0"></path><path fill="#974D4C" d="M20 21a2 2 0 0 1-2-2v-7h4v7a2 2 0 0 1-2 2"></path><path fill="#638DA0" d="M47 12h-4a2 2 0 0 1 4 0"></path><path fill="#974D4C" d="M45 21a2 2 0 0 1-2-2v-7h4v7a2 2 0 0 1-2 2"></path><path fill="#DEDECA" d="M20 19a2 2 0 0 1-2-2v-7a2 2 0 1 1 4 0v7a2 2 0 0 1-2 2M45 19a2 2 0 0 1-2-2v-7a2 2 0 1 1 4 0v7a2 2 0 0 1-2 2"></path></g></svg>