<?xml version="1.0" encoding="UTF-8"?>
<svg version="1.1" xmlns="http://www.w3.org/2000/svg" width="512" height="512">
<path d="M0 0 C1.49314878 -0.00418347 2.98629438 -0.00966649 4.47943419 -0.01631981 C8.54241723 -0.0306605 12.60519546 -0.02656571 16.66818917 -0.019153 C21.06573793 -0.01439515 25.46324402 -0.0269542 29.86077881 -0.03717041 C38.46059022 -0.05431306 47.06032842 -0.05520782 55.66015247 -0.04995751 C62.65481749 -0.04590591 69.64946098 -0.04737109 76.64412498 -0.05270576 C77.64200061 -0.05345419 78.63987623 -0.05420261 79.6679905 -0.05497371 C81.6955856 -0.05650529 83.72318069 -0.05804364 85.75077578 -0.05958868 C104.73933867 -0.07329745 123.72786029 -0.06788757 142.71642222 -0.05640347 C160.06024564 -0.046474 177.40396232 -0.05940972 194.74776927 -0.08333766 C212.58781144 -0.10776339 230.42780396 -0.11732792 248.2678625 -0.11068493 C258.27110345 -0.10720027 268.27426237 -0.10937481 278.27749062 -0.12693596 C286.79338713 -0.14170149 295.30914385 -0.1422368 303.82503776 -0.12486505 C308.16342449 -0.11638816 312.50156197 -0.11412372 316.8399353 -0.1295166 C320.82315525 -0.14347351 324.805915 -0.13846152 328.78910907 -0.11927737 C330.21832284 -0.1155504 331.64757448 -0.11834212 333.07675419 -0.12888902 C346.567307 -0.221245 360.33654852 1.93963523 372.50041199 8.07518005 C373.199245 8.41766785 373.898078 8.76015564 374.61808777 9.11302185 C381.23274791 12.46739355 387.07016355 16.54068352 392.68791199 21.38768005 C394.07043152 22.56717224 394.07043152 22.56717224 395.48088074 23.77049255 C409.95912048 37.12559664 420.97685265 57.49046337 421.81671315 77.448439 C421.81939601 79.09063018 421.81939601 79.09063018 421.82213306 80.76599693 C421.82659091 82.03603203 421.83104875 83.30606713 421.83564168 84.61458814 C421.8355524 86.0165217 421.83536257 87.41845526 421.83508301 88.82038879 C421.83838444 90.31559234 421.8421106 91.810795 421.84622449 93.30599654 C421.85622104 97.41172485 421.8599575 101.51743854 421.8626138 105.62317729 C421.86652388 110.05287338 421.87610179 114.48255797 421.88482666 118.9122467 C421.90457226 129.60921022 421.91465533 140.30617465 421.92355445 151.00315183 C421.92794089 156.04482773 421.93330681 161.08650257 421.93854332 166.12817764 C421.95555447 182.89564737 421.97004728 199.66311646 421.97729206 216.43059349 C421.97920185 220.78005855 421.9811222 225.12952361 421.983078 229.47898865 C421.98356174 230.55998245 421.98404548 231.64097625 421.98454388 232.75472744 C421.99283912 250.25492337 422.01816799 267.75505083 422.05065868 285.25521688 C422.08376898 303.23624278 422.10174445 321.21723393 422.1049363 339.19829047 C422.10709783 349.28826178 422.115794 359.37813327 422.14139748 369.4680748 C422.16315884 378.06359681 422.17112826 386.65899476 422.16143069 395.2545412 C422.15690157 399.63528852 422.15869077 404.01578015 422.17819214 408.396492 C422.19593692 412.41758695 422.19473563 416.43824184 422.17929485 420.4593422 C422.17693578 421.90358874 422.18115255 423.34786669 422.1931235 424.79206555 C422.38312958 449.25697742 413.18925523 470.48028787 396.50041199 488.13768005 C378.26161808 505.55559998 356.44602594 512.89138485 331.37582397 512.77536011 C329.88267519 512.77954358 328.3895296 512.7850266 326.89638978 512.79167992 C322.83340674 512.80602061 318.77062851 512.80192582 314.70763481 512.79451311 C310.31008605 512.78975526 305.91257995 512.80231431 301.51504517 512.81253052 C292.91523375 512.82967317 284.31549555 512.83056793 275.7156715 512.82531761 C268.72100648 512.82126602 261.72636299 512.8227312 254.73169899 512.82806587 C253.73382337 512.82881429 252.73594775 512.82956272 251.70783347 512.83033382 C249.68023838 512.83186539 247.65264328 512.83340374 245.6250482 512.83494879 C226.63648531 512.84865756 207.64796369 512.84324768 188.65940175 512.83176357 C171.31557834 512.8218341 153.97186165 512.83476982 136.6280547 512.85869776 C118.78801254 512.88312349 100.94802001 512.89268803 83.10796148 512.88604504 C73.10472053 512.88256038 63.1015616 512.88473492 53.09833336 512.90229607 C44.58243684 512.9170616 36.06668012 512.91759691 27.55078622 512.90022516 C23.21239949 512.89174827 18.87426201 512.88948383 14.53588867 512.90487671 C10.55266872 512.91883362 6.56990897 512.91382163 2.5867149 512.89463747 C1.15750113 512.89091051 -0.2717505 512.89370223 -1.70093022 512.90424912 C-26.8766592 513.07660153 -48.35510567 504.07074232 -66.31208801 486.38768005 C-82.24205101 470.48710813 -90.47618158 449.98205127 -90.58889902 427.64444673 C-90.58595773 426.25428183 -90.58282237 424.86411732 -90.57951355 423.47395325 C-90.58325546 421.97529613 -90.58785912 420.47664096 -90.59324419 418.97798884 C-90.60542302 414.88127666 -90.60521979 410.78464646 -90.60285544 406.68792033 C-90.60244597 402.26101484 -90.61349888 397.83413517 -90.62297058 393.40724182 C-90.63955383 384.74172755 -90.64507893 376.0762405 -90.64619534 367.41071169 C-90.64714715 360.36302837 -90.65126412 353.31535399 -90.65759659 346.26767349 C-90.67520229 326.2649407 -90.6844366 306.26222934 -90.68293564 286.25948875 C-90.68285573 285.18207996 -90.68277582 284.10467118 -90.68269348 282.99461365 C-90.68261172 281.91588185 -90.68252996 280.83715006 -90.68244572 279.72572942 C-90.68163318 262.25164961 -90.70076451 244.77765606 -90.72897021 227.30360119 C-90.75773533 209.34052409 -90.77150849 191.37748901 -90.76978266 173.4143883 C-90.76911998 163.33789654 -90.77455882 153.26149521 -90.79613876 143.18502426 C-90.81439842 134.60423143 -90.81865879 126.02357002 -90.80511992 117.44276612 C-90.79861413 113.07009707 -90.79838595 108.6976798 -90.81582642 104.3250351 C-90.831669 100.31149325 -90.828581 96.29840043 -90.81125815 92.28486879 C-90.80821262 90.84343693 -90.81172676 89.4019706 -90.8229783 87.96057944 C-91.00102416 63.50552268 -81.80672987 42.28798193 -65.12458801 24.63768005 C-46.8857941 7.21976013 -25.07020196 -0.11602475 0 0 Z " fill="#5865F2" transform="translate(90.31208801269531,-0.3876800537109375)"/>
<path d="M0 0 C1.29574871 2.22687976 2.58667308 4.45633175 3.875 6.6875 C4.42220703 7.62625977 4.42220703 7.62625977 4.98046875 8.58398438 C5.33496094 9.19951172 5.68945312 9.81503906 6.0546875 10.44921875 C6.37937012 11.00955811 6.70405273 11.56989746 7.03857422 12.1472168 C8.19371925 14.37332031 9.0982253 16.66135082 10 19 C11.17401367 18.85852539 12.34802734 18.71705078 13.55761719 18.57128906 C25.82539378 17.17352633 37.94054177 16.6862325 50.28320312 16.73925781 C53.2619232 16.75004317 56.24004719 16.73925029 59.21875 16.7265625 C69.18268737 16.7203791 78.85573206 17.07747311 88.71386719 18.57128906 C91.8535814 18.98089814 94.8382927 19.07582321 98 19 C98.23187012 18.49549316 98.46374023 17.99098633 98.70263672 17.47119141 C99.75554355 15.18699923 100.81518168 12.90599306 101.875 10.625 C102.23980469 9.8309375 102.60460937 9.036875 102.98046875 8.21875 C103.33496094 7.45820312 103.68945312 6.69765625 104.0546875 5.9140625 C104.54171143 4.8614624 104.54171143 4.8614624 105.03857422 3.78759766 C106 2 106 2 108 0 C133.29597583 0.9531817 161.15594607 11.84642701 184 22 C184.6904541 22.2988208 185.3809082 22.5976416 186.09228516 22.90551758 C189.38468786 24.7944146 191.03625547 28.16254138 193 31.3125 C193.47638916 32.06595703 193.95277832 32.81941406 194.44360352 33.59570312 C214.77644392 66.07521999 229.61081701 99.81985661 239 137 C239.31493408 138.22420654 239.31493408 138.22420654 239.63623047 139.47314453 C245.51124417 162.94841024 246.26754372 187.9061658 246.3125 212 C246.31608521 212.77777802 246.31967041 213.55555603 246.32336426 214.35690308 C246.38034055 237.16954395 246.38034055 237.16954395 241.70703125 242.7265625 C240.75183594 243.35304688 239.79664063 243.97953125 238.8125 244.625 C237.71679688 245.35589844 236.62109375 246.08679688 235.4921875 246.83984375 C234.32926512 247.56173574 233.16521346 248.28181194 232 249 C230.95070313 249.68191406 229.90140625 250.36382812 228.8203125 251.06640625 C169.91701197 288 169.91701197 288 146 288 C144.30639789 285.84478432 142.83704918 283.74377928 141.375 281.4375 C140.94203613 280.76871826 140.50907227 280.09993652 140.06298828 279.41088867 C138.694491 277.2825846 137.34548386 275.14291503 136 273 C135.5565625 272.30100586 135.113125 271.60201172 134.65625 270.88183594 C133.38280069 268.8664887 132.1254663 266.8421729 130.875 264.8125 C130.48489746 264.18980225 130.09479492 263.56710449 129.69287109 262.92553711 C127.66708398 259.57144791 127 258.03259349 127 254 C127.66008057 253.71801758 128.32016113 253.43603516 129.00024414 253.14550781 C132.02287483 251.85134385 135.04268906 250.55072921 138.0625 249.25 C139.10083984 248.8065625 140.13917969 248.363125 141.20898438 247.90625 C150.85313213 244.48022342 150.85313213 244.48022342 158 238 C154.04740964 235.71965941 150.34219095 234.37439935 145.78710938 235.59106445 C143.18142614 236.53690243 140.62325353 237.56356212 138.0625 238.625 C136.16871926 239.37429548 134.27418362 240.12168574 132.37890625 240.8671875 C131.45609863 241.23424805 130.53329102 241.60130859 129.58251953 241.97949219 C117.81124814 246.63102503 106.14027589 249.4573463 93.68212891 251.54589844 C91.13074155 251.97786462 88.58766368 252.44456907 86.04296875 252.9140625 C45.31329667 260.00657401 -1.77671196 253.68165313 -39.14160156 235.72436523 C-41.76155479 234.70316171 -43.4272047 234.9406137 -46 236 C-49.24849977 237.72226496 -49.24849977 237.72226496 -50 241 C-49.2059375 241.23847656 -48.411875 241.47695313 -47.59375 241.72265625 C-43.07126803 243.33010365 -38.82120697 245.35754112 -34.5 247.4375 C-33.67113281 247.83259766 -32.84226562 248.22769531 -31.98828125 248.63476562 C-27.63671418 250.71369393 -23.3050846 252.82649138 -19 255 C-20.52560692 260.52922277 -23.18741173 264.98677467 -26.1875 269.8125 C-26.67710205 270.60769043 -27.1667041 271.40288086 -27.67114258 272.22216797 C-31.12375201 277.7629165 -34.80178418 282.99510879 -39 288 C-45.14416585 286.77840058 -50.94918978 285.13655468 -56.8125 282.9375 C-57.62944336 282.63223389 -58.44638672 282.32696777 -59.28808594 282.01245117 C-85.15911847 272.17385839 -109.08577986 259.23431241 -131.82128906 243.50537109 C-133.53625006 242.32042606 -135.26558204 241.15627864 -137 240 C-139.32431905 230.13405545 -138.24318395 218.61929983 -138.25 208.5 C-138.25067474 207.59571259 -138.25134949 206.69142517 -138.25204468 205.75973511 C-138.18140445 145.8416336 -120.90940436 68.91662207 -79 23 C-76.29296875 21.51782227 -76.29296875 21.51782227 -73.1875 20.31640625 C-72.03926758 19.866604 -70.89103516 19.41680176 -69.70800781 18.95336914 C-68.48436523 18.49438232 -67.26072266 18.03539551 -66 17.5625 C-64.73001721 17.07641962 -63.46016139 16.59000737 -62.19042969 16.10327148 C-51.94342612 12.21131951 -41.59306669 8.8190851 -31 6 C-30.26297852 5.80325684 -29.52595703 5.60651367 -28.76660156 5.40380859 C-7.678036 -0.16135978 -7.678036 -0.16135978 0 0 Z " fill="#FEFEFE" transform="translate(202,112)"/>
<path d="M0 0 C8.36294068 5.98408299 14.33812606 15.244801 16.3125 25.375 C17.24422385 37.22774935 15.78473813 48.18650616 8.00390625 57.56640625 C0.84817626 65.2179143 -5.75508846 70.33370457 -16.51953125 70.89648438 C-27.45571916 71.109527 -34.99527525 67.67982316 -42.9375 60.25 C-51.47348566 51.10430108 -53.38330487 40.31497302 -52.96875 28.1484375 C-52.17733286 17.53025751 -47.08190555 9.38670214 -39.5 2.0625 C-27.59643643 -7.96050059 -12.98988337 -7.93948729 0 0 Z " fill="#5966F2" transform="translate(210.6875,237.625)"/>
<path d="M0 0 C8.42537602 5.9250183 15.35349966 13.91468788 18 24 C19.30823907 36.39774555 18.47863127 47.87425845 11.1875 58.3125 C5.09849752 65.75630553 -1.75540212 71.32824304 -11.55859375 72.3828125 C-22.45299851 72.7119486 -29.80744681 70.91210521 -38.25 64 C-46.42629958 56.20937493 -50.91076848 45.52659276 -51.375 34.3125 C-51.17063267 24.10690625 -47.79114153 15.55840992 -41 8 C-40.46375 7.37222656 -39.9275 6.74445313 -39.375 6.09765625 C-28.83318832 -5.44465145 -13.65511852 -6.6228215 0 0 Z " fill="#5966F2" transform="translate(336,236)"/>
</svg>
