<?xml version="1.0" encoding="iso-8859-1"?>
<!-- Uploaded to: SVG Repo, www.svgrepo.com, Generator: SVG Repo Mixer Tools -->
<svg height="800px" width="800px" version="1.1" id="Layer_1" xmlns="http://www.w3.org/2000/svg" xmlns:xlink="http://www.w3.org/1999/xlink" 
	 viewBox="0 0 512 512" xml:space="preserve">
<path style="fill:#FFBE00;" d="M471.462,439.141l-169.297-155.17c-9.194-8.428-7.997-23.291,2.453-30.13l83.27-54.486
	c0.176-0.124,0.354-0.244,0.535-0.362l82.875-54.237c8.825-5.775,20.66-3.323,26.465,5.482C507.078,164.368,512,180.818,512,197.807
	v194.489c0,14.707-3.76,29.242-10.874,42.036C495.141,445.099,480.607,447.524,471.462,439.141z"/>
<path style="fill:#FFD155;" d="M398.904,234.152c-10.571,0-19.141-8.582-19.141-19.143v-84.687c0-10.572,8.571-19.143,19.143-19.143
	h26.455c29.252,0,56.324,14.607,72.414,39.074c5.814,8.841,3.347,20.739-5.512,26.535l-82.875,54.237
	C406.216,233.103,402.564,234.152,398.904,234.152z"/>
<path style="fill:#FFC72D;" d="M10.874,434.331C3.76,421.537,0,407.002,0,392.295V197.807c0-16.988,4.922-33.438,14.237-47.569
	c5.804-8.807,17.642-11.258,26.465-5.482l82.875,54.237c0.181,0.119,0.36,0.24,0.535,0.364l83.269,54.486
	c10.437,6.829,11.66,21.691,2.453,30.13L40.536,439.142C31.395,447.52,16.866,445.108,10.874,434.331z"/>
<path style="fill:#FFD155;" d="M425.361,478.922H86.639c-31.441,0-60.473-17.085-75.766-44.589
	c-4.306-7.742-2.735-17.429,3.797-23.415l169.297-155.17c6.452-5.914,16.095-6.699,23.419-1.904
	c56.936,37.274,41.522,36.469,97.229,0c7.323-4.793,16.967-4.011,23.419,1.904l169.297,155.17
	c6.531,5.987,8.101,15.671,3.797,23.415C485.833,461.836,456.802,478.922,425.361,478.922z"/>
<path style="fill:#FFC72D;" d="M497.33,410.917l-169.297-155.17c-6.452-5.914-16.096-6.697-23.419-1.904
	c-40.037,26.211-40.353,27.655-48.614,27.656v197.422h169.361c31.441,0,60.473-17.085,75.766-44.589
	C505.432,426.588,503.862,416.904,497.33,410.917z"/>
<path style="fill:#FFDA79;" d="M113.096,234.152c-7.823,0-2.823,1.889-93.358-57.363c-8.855-5.794-11.329-17.69-5.512-26.535
	c16.09-24.467,43.161-39.074,72.414-39.074h26.455c10.572,0,19.143,8.571,19.143,19.143v84.687
	C132.237,225.603,123.633,234.152,113.096,234.152z"/>
<path style="fill:#C7E9F4;" d="M255.999,319.784c-23.539,0-23.327-3.629-153.386-88.744c-5.405-3.536-8.661-9.56-8.661-16.019
	V52.221c0-10.572,8.571-19.143,19.143-19.143h285.811c10.572,0,19.143,8.571,19.143,19.143v162.801
	c0,6.459-3.257,12.482-8.661,16.019C278.419,316.751,279.39,319.784,255.999,319.784z"/>
<path style="fill:#80D0E1;" d="M398.906,33.078H256v286.706c23.536-0.001,23.313-3.621,153.387-88.744
	c5.405-3.536,8.661-9.56,8.661-16.019V52.221C418.048,41.649,409.477,33.078,398.906,33.078z"/>
<g>
	<path style="fill:#36495E;" d="M315.105,139.358H196.897c-10.572,0-19.143-8.571-19.143-19.143s8.571-19.143,19.143-19.143h118.208
		c10.572,0,19.143,8.571,19.143,19.143S325.676,139.358,315.105,139.358z"/>
	<path style="fill:#36495E;" d="M340.628,207.033H171.373c-10.572,0-19.143-8.571-19.143-19.143
		c0-10.572,8.571-19.143,19.143-19.143h169.255c10.572,0,19.143,8.571,19.143,19.143S351.2,207.033,340.628,207.033z"/>
</g>
<g>
	<path style="fill:#2C3E50;" d="M315.105,101.073H256v38.285h59.105c10.572,0,19.143-8.571,19.143-19.143
		S325.676,101.073,315.105,101.073z"/>
	<path style="fill:#2C3E50;" d="M340.628,168.748H256v38.285h84.628c10.572,0,19.143-8.571,19.143-19.143
		C359.771,177.319,351.2,168.748,340.628,168.748z"/>
</g>
</svg>