<?xml version="1.0" encoding="iso-8859-1"?>
<!-- Uploaded to: SVG Repo, www.svgrepo.com, Generator: SVG Repo Mixer Tools -->
<svg version="1.1" id="Layer_1" xmlns="http://www.w3.org/2000/svg" xmlns:xlink="http://www.w3.org/1999/xlink" 
	 viewBox="0 0 512 512" xml:space="preserve">
<path style="fill:#D5DCED;" d="M348.89,503.706H101.184c-14.658,0-26.54-11.882-26.54-26.54V34.834
	c0-14.658,11.882-26.54,26.54-26.54H348.89c14.658,0,26.54,11.882,26.54,26.54v442.333
	C375.43,491.824,363.548,503.706,348.89,503.706z"/>
<path style="fill:#C7CFE2;" d="M375.43,93.111c-11.22-3.342-23.081-5.197-35.387-5.197c-68.401,0-123.853,55.451-123.853,123.853
	S271.642,335.62,340.043,335.62c12.306,0,24.167-1.856,35.387-5.197V93.111z"/>
<rect x="110.03" y="79.067" style="fill:#FFFFFF;" width="230.013" height="353.866"/>
<path style="fill:#E4EAF8;" d="M304.657,362.16h-159.24c-9.772,0-17.693-7.921-17.693-17.693V256
	c0-9.772,7.921-17.693,17.693-17.693h159.24c9.772,0,17.693,7.921,17.693,17.693v88.467
	C322.35,354.239,314.429,362.16,304.657,362.16z"/>
<path style="fill:#D5DCED;" d="M304.657,238.307h-85.544c10.924,49.982,52.011,88.558,103.237,95.907V256
	C322.35,246.228,314.428,238.307,304.657,238.307z"/>
<path style="fill:#00C3FF;" d="M323.392,115.836c-41.086,6.809-73.797,40.489-79.651,81.722
	c-5.277,37.17,10.544,70.915,37.133,91.342c-7.461,13.638-15.849,23.96-21.731,30.356c-2.309,2.511-0.046,6.516,3.298,5.84
	c11.8-2.384,31.266-7.95,48.43-20.478c12.913,4.054,26.976,5.509,41.593,3.685c42.211-5.269,76.957-38.578,83.625-80.591
	C446.631,161.287,389.887,104.816,323.392,115.836z"/>
<circle style="fill:#87DCFF;" cx="340.043" cy="211.767" r="70.773"/>
<path d="M375.43,327.326c-4.58,0-8.294,3.713-8.294,8.294v141.546c0,10.061-8.185,18.246-18.246,18.246H101.184
	c-10.061,0-18.246-8.185-18.246-18.246V34.834c0-10.061,8.185-18.246,18.246-18.246H348.89c10.061,0,18.246,8.185,18.246,18.246
	v44.233c0,4.58,3.713,8.294,8.294,8.294s8.294-3.713,8.294-8.294V34.834C383.724,15.627,368.097,0,348.89,0H101.184
	C81.976,0,66.35,15.627,66.35,34.834v442.333c0,19.207,15.627,34.834,34.834,34.834H348.89c19.207,0,34.834-15.627,34.834-34.834
	V335.62C383.724,331.04,380.01,327.326,375.43,327.326z"/>
<path d="M242.73,51.974c4.58,0,8.294-3.713,8.294-8.294s-3.713-8.294-8.294-8.294h-35.387c-4.58,0-8.294,3.713-8.294,8.294
	s3.713,8.294,8.294,8.294H242.73z"/>
<path d="M180.339,43.68c0-4.58-3.713-8.294-8.294-8.294h-0.088c-4.58,0-8.25,3.713-8.25,8.294s3.758,8.294,8.338,8.294
	C176.626,51.974,180.339,48.261,180.339,43.68z"/>
<path d="M207.343,460.026c-4.58,0-8.294,3.713-8.294,8.294s3.713,8.294,8.294,8.294h35.387c4.58,0,8.294-3.713,8.294-8.294
	s-3.713-8.294-8.294-8.294H207.343z"/>
<path d="M348.337,79.067c0-4.58-3.713-8.294-8.294-8.294H110.03c-4.58,0-8.294,3.713-8.294,8.294v353.866
	c0,4.58,3.713,8.294,8.294,8.294h230.013c4.58,0,8.294-3.713,8.294-8.294v-88.468c0-4.58-3.713-8.294-8.294-8.294
	s-8.294,3.713-8.294,8.294v80.174H118.324V87.361h221.719C344.624,87.361,348.337,83.647,348.337,79.067z"/>
<path d="M340.132,166.981c4.58,0,8.294-3.713,8.294-8.294c0-4.58-3.713-8.294-8.294-8.294h-0.088c-4.58,0-8.249,3.713-8.249,8.294
	C331.794,163.267,335.551,166.981,340.132,166.981z"/>
<path d="M340.043,106.16c-58.232,0-105.607,47.375-105.607,105.607c0,30.554,12.938,58.982,35.739,79.066
	c-11.441,18.731-23.858,29.525-23.986,29.633c-2.732,2.334-3.651,6.163-2.276,9.483c1.292,3.116,4.328,5.119,7.659,5.119
	c0.218,0,0.438-0.009,0.658-0.025c1.365-0.108,32.508-2.768,60.135-21.346c9.004,2.442,18.295,3.678,27.677,3.678
	c58.232,0,105.607-47.375,105.607-105.607S398.275,106.16,340.043,106.16z M340.043,300.786c-9.084,0-18.064-1.373-26.689-4.081
	c-2.51-0.787-5.247-0.337-7.374,1.214c-10.211,7.453-21.42,12.265-31.044,15.345c4.305-5.678,8.903-12.505,13.214-20.384
	c1.962-3.586,1.018-8.067-2.223-10.557c-22.182-17.041-34.903-42.758-34.903-70.556c0-49.086,39.934-89.019,89.019-89.019
	s89.019,39.934,89.019,89.019S389.129,300.786,340.043,300.786z"/>
<path d="M348.89,202.367c4.58,0,8.294-3.713,8.294-8.294s-3.713-8.294-8.294-8.294h-17.693c-4.58,0-8.294,3.713-8.294,8.294
	s3.713,8.294,8.294,8.294h0.553v54.186h-0.553c-4.58,0-8.294,3.713-8.294,8.294s3.713,8.294,8.294,8.294h17.693
	c4.58,0,8.294-3.713,8.294-8.294s-3.713-8.294-8.294-8.294h-0.553v-54.186H348.89z"/>
<path d="M154.263,308.527h61.927c4.58,0,8.294-3.713,8.294-8.294s-3.713-8.294-8.294-8.294h-61.927c-4.58,0-8.294,3.713-8.294,8.294
	S149.683,308.527,154.263,308.527z"/>
<path d="M154.263,273.14h26.54c4.58,0,8.294-3.713,8.294-8.294s-3.713-8.294-8.294-8.294h-26.54c-4.58,0-8.294,3.713-8.294,8.294
	S149.683,273.14,154.263,273.14z"/>
<path d="M224.484,335.62c0-4.58-3.713-8.294-8.294-8.294h-61.927c-4.58,0-8.294,3.713-8.294,8.294s3.713,8.294,8.294,8.294h61.927
	C220.77,343.914,224.484,340.2,224.484,335.62z"/>
<path d="M154.263,389.253c-4.58,0-8.294,3.713-8.294,8.294s3.713,8.294,8.294,8.294h17.693c4.58,0,8.294-3.713,8.294-8.294
	s-3.713-8.294-8.294-8.294H154.263z"/>
<path d="M295.81,405.84c4.58,0,8.294-3.713,8.294-8.294s-3.713-8.294-8.294-8.294h-17.693c-4.58,0-8.294,3.713-8.294,8.294
	s3.713,8.294,8.294,8.294H295.81z"/>
<path d="M216.19,405.84h17.693c4.58,0,8.294-3.713,8.294-8.294s-3.713-8.294-8.294-8.294H216.19c-4.58,0-8.294,3.713-8.294,8.294
	S211.61,405.84,216.19,405.84z"/>
</svg>