<?xml version="1.0" encoding="iso-8859-1"?>
<!-- Uploaded to: SVG Repo, www.svgrepo.com, Generator: SVG Repo Mixer Tools -->
<svg height="800px" width="800px" version="1.1" id="Layer_1" xmlns="http://www.w3.org/2000/svg" xmlns:xlink="http://www.w3.org/1999/xlink" 
	 viewBox="0 0 512 512" xml:space="preserve">
<path style="fill:#3FC8F2;" d="M236.891,292.633L120.994,444.383c32.523,25.276,73.383,40.335,117.763,40.335
	c106.057,0,192.038-85.953,192.084-191.999L236.891,292.633z"/>
<path style="fill:#0DAACE;" d="M236.891,292.633l-0.011,0.014l162.388,0.073c-0.044,100.738-77.638,183.335-176.322,191.352
	c5.215,0.425,10.486,0.647,15.811,0.647c106.057,0,192.038-85.953,192.084-191.999L236.891,292.633z"/>
<path style="fill:#F77935;" d="M236.891,292.633L113.358,98.774C49.89,139.914,7.893,211.365,7.893,292.633
	c0,74.27,35.08,140.339,89.564,182.569L236.891,292.633L236.891,292.633z"/>
<path style="fill:#D9510D;" d="M113.359,98.774c-7.483,4.85-14.661,10.127-21.514,15.785l113.475,178.073L78.456,458.74
	c6.029,5.819,12.369,11.32,19.002,16.46l139.434-182.569L113.359,98.774z"/>
<path style="fill:#FFDB56;" d="M504.106,292.752c0-0.04,0.001-0.079,0.001-0.119c0-146.548-118.801-265.349-265.349-265.349
	c-53.057,0-102.471,15.581-143.934,42.405l142.068,222.945L504.106,292.752z"/>
<path style="fill:#FBA806;" d="M238.757,27.282c-5.331,0-10.622,0.164-15.874,0.475c139.238,8.127,249.65,123.598,249.65,264.875
	c0,0.035-0.001,0.069-0.001,0.104l31.573,0.014c0-0.04,0.001-0.079,0.001-0.119C504.107,146.083,385.306,27.282,238.757,27.282z"/>
<path d="M431.969,99.42C380.36,47.812,311.744,19.389,238.757,19.389c-52.806,0-104.061,15.101-148.221,43.671
	c-3.642,2.356-4.7,7.21-2.369,10.868l14.397,22.594C87.026,107.333,72.8,119.959,60.2,134.141
	c-2.895,3.259-2.601,8.248,0.659,11.143c3.258,2.895,8.249,2.6,11.143-0.659c11.629-13.09,24.739-24.764,39.051-34.782
	l74.203,116.445l42.016,65.935l-65.574,85.859c-2.646,3.465-1.983,8.418,1.482,11.064c0.321,0.245,0.659,0.453,1.003,0.642
	c0.067,0.037,0.133,0.075,0.2,0.109c0.334,0.17,0.675,0.317,1.023,0.436c0.069,0.024,0.14,0.043,0.209,0.065
	c0.344,0.107,0.691,0.196,1.043,0.255c0.024,0.004,0.047,0.011,0.072,0.015c0.366,0.058,0.735,0.082,1.103,0.087
	c0.044,0.001,0.088,0.011,0.133,0.011c0.046,0,0.092-0.007,0.138-0.007c0.175-0.003,0.349-0.015,0.523-0.029
	c0.102-0.008,0.204-0.014,0.306-0.026c0.217-0.026,0.432-0.065,0.645-0.109c0.057-0.012,0.114-0.018,0.171-0.032
	c0.267-0.062,0.531-0.139,0.791-0.228c0.081-0.027,0.16-0.063,0.24-0.094c0.18-0.068,0.359-0.14,0.535-0.222
	c0.096-0.044,0.188-0.095,0.282-0.143c0.157-0.081,0.312-0.166,0.463-0.258c0.095-0.058,0.188-0.117,0.281-0.179
	c0.147-0.098,0.29-0.202,0.433-0.31c0.086-0.066,0.174-0.133,0.258-0.203c0.148-0.124,0.29-0.257,0.43-0.394
	c0.068-0.066,0.139-0.128,0.205-0.198c0.202-0.211,0.396-0.433,0.577-0.669l66.551-87.137l100.774,0.045l81.209,0.036
	c-4.193,97.869-85.147,176.216-184.02,176.216c-38.694,0-75.396-11.728-106.641-33.999l21.747-28.476
	c2.646-3.465,1.983-8.418-1.482-11.064c-1.304-0.996-2.818-1.522-4.341-1.607c-2.525-0.142-5.073,0.928-6.723,3.09l-26.597,34.824
	c-0.001,0.001-0.002,0.002-0.002,0.003l-18.625,24.388c-51.141-42.551-80.306-104.554-80.306-171.35
	c0-43.85,12.718-86.281,36.779-122.708c2.403-3.638,1.402-8.534-2.236-10.937c-3.637-2.401-8.533-1.402-10.937,2.235
	C13.622,200.24,0,245.68,0,292.633c0,37.553,8.474,73.498,25.188,106.837c15.932,31.78,39.251,60.126,67.435,81.971
	c1.391,1.079,3.094,1.654,4.836,1.654c0.339,0,0.68-0.022,1.02-0.066c2.086-0.272,3.976-1.365,5.253-3.036l18.801-24.617
	c34.022,24.386,74.035,37.236,116.226,37.236c107.575,0,195.597-85.423,199.804-191.996l65.541,0.029c0.001,0,0.002,0,0.003,0
	c2.092,0,4.1-0.809,5.58-2.289c1.481-1.481,2.313-3.467,2.313-5.561c0-0.035,0.001-0.128,0.001-0.162
	C512,219.646,483.578,151.029,431.969,99.42z M323.762,284.777l-82.539-0.037l-66.263-103.986l-54.944-86.223
	c-0.001-0.001-0.002-0.002-0.002-0.004l-14.256-22.372c40.06-24.22,85.87-36.982,133-36.982c68.769,0,133.422,26.78,182.049,75.407
	c46.8,46.799,73.363,108.44,75.294,174.271L323.762,284.777z"/>
</svg>