<?xml version="1.0" encoding="iso-8859-1"?>
<!-- Uploaded to: SVG Repo, www.svgrepo.com, Generator: SVG Repo Mixer Tools -->
<svg height="800px" width="800px" version="1.1" id="Layer_1" xmlns="http://www.w3.org/2000/svg" xmlns:xlink="http://www.w3.org/1999/xlink" 
	 viewBox="0 0 512 512" xml:space="preserve">
<path style="fill:#8AD5DD;" d="M256.216,105.816C70.184,105.816,0,256,0,256s69.76,150.184,255.784,150.184S512,256,512,256
	S442.24,105.816,256.216,105.816z"/>
<path style="fill:#2D2D2D;" d="M256,369.192c62.512,0,113.184-50.672,113.192-113.184V256v-0.008
	c0-62.512-50.68-113.184-113.192-113.184S142.816,193.48,142.808,255.992V256v0.008C142.816,318.52,193.488,369.192,256,369.192z
	 M160.68,256c0-52.64,42.672-95.32,95.32-95.32c52.64,0,95.32,42.672,95.32,95.32c0,52.64-42.672,95.32-95.32,95.32
	C203.36,351.32,160.68,308.64,160.68,256z"/>
<path style="fill:#DB2B42;" d="M256,351.32c52.64,0,95.32-42.672,95.32-95.32c0-52.64-42.672-95.32-95.32-95.32
	c-52.64,0-95.32,42.672-95.32,95.32C160.68,308.64,203.36,351.32,256,351.32z M191.464,256c0-35.64,28.896-64.536,64.536-64.536
	S320.536,220.36,320.536,256S291.64,320.536,256,320.536S191.464,291.64,191.464,256z"/>
<path style="fill:#FFFFFF;" d="M256,320.536c35.64,0,64.536-28.896,64.536-64.536S291.64,191.464,256,191.464
	S191.464,220.36,191.464,256C191.464,291.64,220.36,320.536,256,320.536z M223.96,256c0-17.696,14.344-32.04,32.04-32.04
	s32.04,14.344,32.04,32.04s-14.344,32.04-32.04,32.04S223.96,273.696,223.96,256z"/>
<circle style="fill:#2D2D2D;" cx="256" cy="256" r="32"/>
</svg>